<svg width="45" height="60" viewBox="0 0 45 60" fill="none" xmlns="http://www.w3.org/2000/svg">
<path d="M39.375 7.5H30C30 3.36328 26.6367 0 22.5 0C18.3633 0 15 3.36328 15 7.5H5.625C2.51953 7.5 0 10.0195 0 13.125V54.375C0 57.4805 2.51953 60 5.625 60H39.375C42.4805 60 45 57.4805 45 54.375V13.125C45 10.0195 42.4805 7.5 39.375 7.5ZM11.25 49.6875C9.69141 49.6875 8.4375 48.4336 8.4375 46.875C8.4375 45.3164 9.69141 44.0625 11.25 44.0625C12.8086 44.0625 14.0625 45.3164 14.0625 46.875C14.0625 48.4336 12.8086 49.6875 11.25 49.6875ZM11.25 38.4375C9.69141 38.4375 8.4375 37.1836 8.4375 35.625C8.4375 34.0664 9.69141 32.8125 11.25 32.8125C12.8086 32.8125 14.0625 34.0664 14.0625 35.625C14.0625 37.1836 12.8086 38.4375 11.25 38.4375ZM11.25 27.1875C9.69141 27.1875 8.4375 25.9336 8.4375 24.375C8.4375 22.8164 9.69141 21.5625 11.25 21.5625C12.8086 21.5625 14.0625 22.8164 14.0625 24.375C14.0625 25.9336 12.8086 27.1875 11.25 27.1875ZM22.5 4.6875C24.0586 4.6875 25.3125 5.94141 25.3125 7.5C25.3125 9.05859 24.0586 10.3125 22.5 10.3125C20.9414 10.3125 19.6875 9.05859 19.6875 7.5C19.6875 5.94141 20.9414 4.6875 22.5 4.6875ZM37.5 47.8125C37.5 48.3281 37.0781 48.75 36.5625 48.75H19.6875C19.1719 48.75 18.75 48.3281 18.75 47.8125V45.9375C18.75 45.4219 19.1719 45 19.6875 45H36.5625C37.0781 45 37.5 45.4219 37.5 45.9375V47.8125ZM37.5 36.5625C37.5 37.0781 37.0781 37.5 36.5625 37.5H19.6875C19.1719 37.5 18.75 37.0781 18.75 36.5625V34.6875C18.75 34.1719 19.1719 33.75 19.6875 33.75H36.5625C37.0781 33.75 37.5 34.1719 37.5 34.6875V36.5625ZM37.5 25.3125C37.5 25.8281 37.0781 26.25 36.5625 26.25H19.6875C19.1719 26.25 18.75 25.8281 18.75 25.3125V23.4375C18.75 22.9219 19.1719 22.5 19.6875 22.5H36.5625C37.0781 22.5 37.5 22.9219 37.5 23.4375V25.3125Z" fill="#333333"/>
</svg>
