<svg width="60" height="54" viewBox="0 0 60 54" fill="none" xmlns="http://www.w3.org/2000/svg">
<path d="M55 0H5C2.23958 0 0 2.23958 0 5V38.3333C0 41.0937 2.23958 43.3333 5 43.3333H25L23.3333 48.3333H15.8333C14.4479 48.3333 13.3333 49.4479 13.3333 50.8333C13.3333 52.2187 14.4479 53.3333 15.8333 53.3333H44.1667C45.5521 53.3333 46.6667 52.2187 46.6667 50.8333C46.6667 49.4479 45.5521 48.3333 44.1667 48.3333H36.6667L35 43.3333H55C57.7604 43.3333 60 41.0937 60 38.3333V5C60 2.23958 57.7604 0 55 0ZM53.3333 36.6667H6.66667V6.66667H53.3333V36.6667Z" fill="#333333"/>
</svg>
