<svg width="12" height="8" viewBox="0 0 12 8" fill="none" xmlns="http://www.w3.org/2000/svg">
<path d="M11.9311 4.75194L10.4223 7.3385C10.3049 7.53979 10.1368 7.7068 9.93468 7.82286C9.73261 7.93893 9.50364 8 9.27061 8H0.938021C0.552125 8 0.311688 7.5814 0.506125 7.24806L2.01496 4.6615C2.13238 4.46021 2.30051 4.29321 2.50259 4.17714C2.70466 4.06107 2.93363 4 3.16667 4H11.4993C11.8851 4 12.1256 4.4186 11.9311 4.75194ZM3.16667 3.33333H10V2.33333C10 1.78104 9.55229 1.33333 9 1.33333H5.66667L4.33333 0H1C0.447708 0 0 0.447708 0 1V6.79262L1.4391 4.32558C1.79613 3.71354 2.4581 3.33333 3.16667 3.33333Z" fill="#FCCA28"/>
</svg>
