<svg width="32" height="26" viewBox="0 0 32 26" fill="none" xmlns="http://www.w3.org/2000/svg">
<path d="M16.0201 14.2137L5.10186 25.132C4.34722 25.8866 3.12694 25.8866 2.38033 25.132L0.565981 23.3176C-0.18866 22.563 -0.18866 21.3427 0.565981 20.5961L8.30507 12.857L0.565981 5.11791C-0.18866 4.36327 -0.18866 3.143 0.565981 2.39639L2.3723 0.565981C3.12694 -0.18866 4.34722 -0.18866 5.09383 0.565981L16.012 11.4842C16.7747 12.2388 16.7747 13.4591 16.0201 14.2137V14.2137ZM31.434 11.4842L20.5158 0.565981C19.7612 -0.18866 18.5409 -0.18866 17.7943 0.565981L15.9799 2.38033C15.2253 3.13497 15.2253 4.35524 15.9799 5.10186L23.719 12.8409L15.9799 20.58C15.2253 21.3347 15.2253 22.5549 15.9799 23.3016L17.7943 25.1159C18.5489 25.8705 19.7692 25.8705 20.5158 25.1159L31.434 14.1977C32.1887 13.4591 32.1887 12.2388 31.434 11.4842Z" fill="black"/>
</svg>
