<svg width="32" height="26" viewBox="0 0 32 26" fill="none" xmlns="http://www.w3.org/2000/svg">
<path d="M15.9754 11.4817L26.8912 0.565857C27.6457 -0.188619 28.8657 -0.188619 29.6122 0.565857L31.4261 2.37981C32.1806 3.13428 32.1806 4.35429 31.4261 5.10074L23.6968 12.8462L31.4341 20.5835C32.1886 21.338 32.1886 22.558 31.4341 23.3045L29.6202 25.1264C28.8657 25.8809 27.6457 25.8809 26.8993 25.1264L15.9834 14.2106C15.2209 13.4562 15.2209 12.2361 15.9754 11.4817V11.4817ZM0.564857 14.2106L11.4807 25.1264C12.2352 25.8809 13.4552 25.8809 14.2016 25.1264L16.0156 23.3125C16.77 22.558 16.77 21.338 16.0156 20.5916L8.28619 12.8462L16.0236 5.10876C16.7781 4.35429 16.7781 3.13428 16.0236 2.38783L14.2096 0.565857C13.4552 -0.188619 12.2352 -0.188619 11.4887 0.565857L0.572884 11.4817C-0.189618 12.2361 -0.189618 13.4562 0.564857 14.2106V14.2106Z" fill="black"/>
</svg>
