<svg width="12" height="10" viewBox="0 0 12 10" fill="none" xmlns="http://www.w3.org/2000/svg">
<path d="M8.66667 3.33333C8.66667 1.49167 6.72708 0 4.33333 0C1.93958 0 0 1.49167 0 3.33333C0 4.04792 0.29375 4.70625 0.791667 5.25C0.5125 5.87917 0.0520833 6.37917 0.0458333 6.38542C0 6.43333 -0.0125 6.50417 0.0145833 6.56667C0.0416667 6.62917 0.1 6.66667 0.166667 6.66667C0.929167 6.66667 1.56042 6.41042 2.01458 6.14583C2.68542 6.47292 3.47917 6.66667 4.33333 6.66667C6.72708 6.66667 8.66667 5.175 8.66667 3.33333ZM11.2083 7.91667C11.7063 7.375 12 6.71458 12 6C12 4.60625 10.8854 3.4125 9.30625 2.91458C9.325 3.05208 9.33333 3.19167 9.33333 3.33333C9.33333 5.53958 7.08958 7.33333 4.33333 7.33333C4.10833 7.33333 3.88958 7.31667 3.67292 7.29375C4.32917 8.49167 5.87083 9.33333 7.66667 9.33333C8.52083 9.33333 9.31458 9.14167 9.98542 8.8125C10.4396 9.07708 11.0708 9.33333 11.8333 9.33333C11.9 9.33333 11.9604 9.29375 11.9854 9.23333C12.0125 9.17292 12 9.10208 11.9542 9.05208C11.9479 9.04583 11.4875 8.54792 11.2083 7.91667Z" fill="#FCCA28"/>
</svg>
