<svg width="53" height="60" viewBox="0 0 53 60" fill="none" xmlns="http://www.w3.org/2000/svg">
<path d="M52.5 42.1875V2.8125C52.5 1.25391 51.2461 0 49.6875 0H11.25C5.03906 0 0 5.03906 0 11.25V48.75C0 54.9609 5.03906 60 11.25 60H49.6875C51.2461 60 52.5 58.7461 52.5 57.1875V55.3125C52.5 54.4336 52.0898 53.6367 51.457 53.1211C50.9648 51.3164 50.9648 46.1719 51.457 44.3672C52.0898 43.8633 52.5 43.0664 52.5 42.1875ZM15 15.7031C15 15.3164 15.3164 15 15.7031 15H40.5469C40.9336 15 41.25 15.3164 41.25 15.7031V18.0469C41.25 18.4336 40.9336 18.75 40.5469 18.75H15.7031C15.3164 18.75 15 18.4336 15 18.0469V15.7031ZM15 23.2031C15 22.8164 15.3164 22.5 15.7031 22.5H40.5469C40.9336 22.5 41.25 22.8164 41.25 23.2031V25.5469C41.25 25.9336 40.9336 26.25 40.5469 26.25H15.7031C15.3164 26.25 15 25.9336 15 25.5469V23.2031ZM44.6953 52.5H11.25C9.17578 52.5 7.5 50.8242 7.5 48.75C7.5 46.6875 9.1875 45 11.25 45H44.6953C44.4727 47.0039 44.4727 50.4961 44.6953 52.5Z" fill="#333333"/>
</svg>
