<svg width="160" height="46" viewBox="0 0 160 46" fill="none" xmlns="http://www.w3.org/2000/svg">
<path d="M14.024 41.7458H10.5818V45.1613H14.024V41.7458Z" fill="#255DC1"/>
<path d="M21.0359 34.7881H14.0239V41.7457H21.0359V34.7881Z" fill="#255DC1"/>
<path d="M7.01195 34.7881V31.246H14.0239V24.2884H7.01195V13.9152H0V41.7457H10.5817V34.7881H7.01195Z" fill="#255DC1"/>
<path d="M17.5936 3.41553V10.3731H21.0359V13.9152H14.0239V20.8728H21.0359V31.246H28.0478V3.41553H17.5936Z" fill="#FCCA29"/>
<path d="M14.024 3.41553H7.01202V10.3731H14.024V3.41553Z" fill="#FCCA29"/>
<path d="M17.4662 0H14.0239V3.41556H17.4662V0Z" fill="#FCCA29"/>
<path d="M40.1594 7.84311V8.85513H37.4821V15.9393H36.2072V8.98163H35.0598V7.84311H36.2072V7.2106C36.2072 6.32508 36.4622 5.56607 36.8447 5.18656C37.3546 4.68056 37.9921 4.42755 38.8845 4.42755C39.1395 4.42755 39.3945 4.42755 39.6495 4.42755C39.9044 4.42755 40.0319 4.55405 40.2869 4.55405V5.69257C40.0319 5.56607 39.9044 5.56607 39.6495 5.56607C39.522 5.56607 39.267 5.56607 39.012 5.56607C37.9921 5.56607 37.4821 6.19858 37.4821 7.3371V7.96961H40.1594V7.84311Z" fill="#FCCA29"/>
<path d="M43.0917 8.9816C42.7093 9.1081 42.3268 9.2346 41.9443 9.36111L41.5619 8.34909C41.9443 8.22259 42.4543 8.09608 42.8368 7.96958C43.3467 7.84308 43.8567 7.84308 44.4941 7.84308C45.6415 7.84308 46.534 8.09608 47.1714 8.72859C47.8089 9.2346 48.0638 10.1201 48.0638 11.2586V16.3187H46.7889V15.0537C46.534 15.4332 46.1515 15.8127 45.6415 16.0657C45.1316 16.3187 44.4941 16.4452 43.7292 16.4452C43.3467 16.4452 42.9642 16.4452 42.5818 16.3187C42.1993 16.1922 41.8168 16.0657 41.5619 15.8127C41.3069 15.5597 41.0519 15.3067 40.7969 15.0537C40.6694 14.6742 40.5419 14.4212 40.5419 13.9152C40.5419 13.5357 40.6694 13.1562 40.7969 12.7767C40.9244 12.3972 41.1794 12.1442 41.5619 11.8911C41.9443 11.6381 42.3268 11.5116 42.7093 11.3851C43.0917 11.2586 43.6017 11.2586 44.2391 11.2586C44.7491 11.2586 45.2591 11.2586 45.6415 11.3851C46.024 11.5116 46.4065 11.5116 46.7889 11.6381V11.1321C46.7889 10.3731 46.534 9.86711 46.1515 9.48761C45.769 9.1081 45.1316 8.9816 44.2391 8.9816C43.8567 8.8551 43.4742 8.8551 43.0917 8.9816ZM42.5818 12.3972C42.1993 12.6502 41.9443 13.1562 41.9443 13.6622C41.9443 13.9152 41.9443 14.1682 42.0718 14.4212C42.1993 14.6742 42.3268 14.8007 42.5818 14.9272C42.8368 15.0537 42.9642 15.1802 43.2192 15.3067C43.4742 15.4332 43.7292 15.4332 43.9842 15.4332C44.3666 15.4332 44.7491 15.4332 45.1316 15.3067C45.514 15.1802 45.769 15.0537 46.024 14.8007C46.279 14.5477 46.534 14.4212 46.6615 14.0417C46.7889 13.7887 46.9164 13.5357 46.9164 13.1562V12.3972C46.6615 12.2707 46.279 12.2707 45.769 12.1442C45.3866 12.0177 44.8766 12.0177 44.3666 12.0177C43.7292 11.8911 43.0917 12.0177 42.5818 12.3972Z" fill="#FCCA29"/>
<path d="M50.7411 16.0658V4.42755H52.0161V16.0658H50.7411Z" fill="#FCCA29"/>
<path d="M56.3507 8.9816C55.9682 9.1081 55.5858 9.2346 55.2033 9.48761L54.8208 8.47559C55.3308 8.22259 55.7133 8.09608 56.2232 7.96958C56.7332 7.84308 57.2431 7.84308 57.8806 7.84308C59.028 7.84308 59.9204 8.09608 60.5579 8.72859C61.1953 9.2346 61.4503 10.1201 61.4503 11.2586V16.3187H60.1754V15.0537C59.9204 15.4332 59.538 15.8127 59.028 16.0657C58.518 16.3187 57.8806 16.4452 57.1157 16.4452C56.7332 16.4452 56.3507 16.4452 55.9682 16.3187C55.5858 16.1922 55.2033 16.0657 54.9483 15.8127C54.6933 15.5597 54.4384 15.3067 54.1834 15.0537C54.0559 14.6742 53.9284 14.4212 53.9284 13.9152C53.9284 13.5357 54.0559 13.1562 54.1834 12.7767C54.3109 12.3972 54.5659 12.1442 54.9483 11.8911C55.3308 11.6381 55.7133 11.5116 56.0957 11.3851C56.4782 11.2586 56.9882 11.2586 57.6256 11.2586C58.1356 11.2586 58.6455 11.2586 59.028 11.3851C59.4105 11.5116 59.7929 11.5116 60.1754 11.6381V11.1321C60.1754 10.3731 59.9204 9.86711 59.538 9.48761C59.1555 9.1081 58.518 8.9816 57.6256 8.9816C57.2431 8.8551 56.8607 8.8551 56.3507 8.9816ZM55.9682 12.3972C55.5858 12.6502 55.3308 13.1562 55.3308 13.6622C55.3308 13.9152 55.3308 14.1682 55.4583 14.4212C55.5858 14.6742 55.7133 14.8007 55.9682 14.9272C56.2232 15.0537 56.3507 15.1802 56.6057 15.3067C56.8607 15.4332 57.1157 15.4332 57.3706 15.4332C57.7531 15.4332 58.1356 15.4332 58.518 15.3067C58.9005 15.1802 59.1555 15.0537 59.4105 14.8007C59.6655 14.5477 59.9204 14.4212 60.0479 14.0417C60.1754 13.7887 60.3029 13.5357 60.3029 13.1562V12.3972C60.0479 12.2707 59.6655 12.2707 59.1555 12.1442C58.773 12.0177 58.2631 12.0177 57.7531 12.0177C56.9882 11.8911 56.3507 12.0177 55.9682 12.3972Z" fill="#FCCA29"/>
<path d="M65.2749 16.0658H64V7.84315H65.2749V9.23468C65.5299 8.72867 65.9124 8.34916 66.4223 8.09616C66.9323 7.84315 67.4422 7.59015 68.2072 7.59015C68.7171 7.59015 69.2271 7.71665 69.6096 7.84315C69.992 7.96966 70.3745 8.22266 70.6295 8.47566C70.8845 8.72867 71.1394 9.10818 71.2669 9.48768C71.3944 9.86719 71.5219 10.3732 71.5219 10.8792V15.9393H70.247V11.2587C70.247 10.4997 69.992 9.86719 69.6096 9.48768C69.2271 8.98167 68.5896 8.85517 67.8247 8.85517C67.4422 8.85517 67.1873 8.85517 66.8048 8.98167C66.5498 9.10818 66.1673 9.23468 66.0398 9.48768C65.7849 9.74069 65.6574 9.99369 65.5299 10.2467C65.4024 10.6262 65.4024 10.8792 65.4024 11.2587V16.0658H65.2749Z" fill="#FCCA29"/>
<path d="M80.7012 16.0658V14.4212C80.5738 14.6742 80.3188 14.9272 80.0638 15.1802C79.8088 15.4332 79.5538 15.5597 79.2989 15.8128C79.0439 16.0658 78.7889 16.0658 78.4064 16.1923C78.024 16.3188 77.769 16.3188 77.3865 16.3188C76.8765 16.3188 76.3666 16.1923 75.8566 16.0658C75.3467 15.8128 74.9642 15.5597 74.5817 15.1802C74.1993 14.8007 73.9443 14.4212 73.6893 13.7887C73.4343 13.2827 73.3068 12.6502 73.3068 12.0177C73.3068 11.3852 73.4343 10.7527 73.6893 10.2467C73.9443 9.74064 74.1993 9.23464 74.5817 8.85513C74.9642 8.47562 75.3467 8.22262 75.8566 7.96961C76.3666 7.71661 76.8765 7.71661 77.3865 7.71661C77.769 7.71661 78.1514 7.71661 78.5339 7.84311C78.9164 7.96961 79.1714 8.09612 79.4263 8.22262C79.6813 8.34912 79.9363 8.60212 80.1913 8.72863C80.4463 8.98163 80.5738 9.10813 80.7012 9.36114V4.42755H81.9761V16.0658H80.7012ZM80.4463 10.6262C80.3188 10.2467 80.0638 9.86715 79.8088 9.61414C79.5538 9.36114 79.1714 9.10813 78.7889 8.98163C78.4064 8.85513 78.024 8.72863 77.6415 8.72863C77.259 8.72863 76.8765 8.85513 76.4941 8.98163C76.1116 9.10813 75.8566 9.36114 75.6016 9.61414C75.3467 9.86715 75.0917 10.2467 74.9642 10.6262C74.7092 11.0057 74.7092 11.5117 74.7092 12.0177C74.7092 12.5237 74.8367 12.9032 74.9642 13.2827C75.0917 13.6622 75.3467 14.0417 75.6016 14.2947C75.8566 14.5477 76.2391 14.8007 76.4941 14.9272C76.8765 15.0537 77.259 15.1802 77.6415 15.1802C78.024 15.1802 78.4064 15.0537 78.7889 14.9272C79.1714 14.8007 79.4263 14.5477 79.8088 14.2947C80.0638 14.0417 80.3188 13.6622 80.4463 13.2827C80.5738 12.9032 80.7012 12.3972 80.7012 12.0177C80.7012 11.6382 80.7012 11.0057 80.4463 10.6262Z" fill="#FCCA29"/>
<path d="M92.5578 13.6622C92.3028 14.1682 92.0478 14.6742 91.6653 15.0537C91.2829 15.4332 90.7729 15.8127 90.2629 15.9392C89.753 16.1922 89.1155 16.3187 88.4781 16.3187C87.8406 16.3187 87.2032 16.1922 86.6932 15.9392C86.1833 15.6862 85.6733 15.4332 85.2908 15.0537C84.9084 14.6742 84.5259 14.1682 84.3984 13.6622C84.1434 13.1561 84.0159 12.6501 84.0159 12.0176C84.0159 11.3851 84.1434 10.8791 84.3984 10.3731C84.6534 9.86709 84.9084 9.36108 85.2908 8.98157C85.6733 8.60207 86.1833 8.22256 86.6932 8.09606C87.2032 7.84306 87.8406 7.71655 88.4781 7.71655C89.1155 7.71655 89.753 7.84306 90.2629 8.09606C90.7729 8.22256 91.2829 8.60207 91.6653 8.98157C92.0478 9.36108 92.4303 9.86709 92.5578 10.3731C92.8127 10.8791 92.9402 11.3851 92.9402 12.0176C92.8127 12.5236 92.8127 13.1561 92.5578 13.6622ZM91.2829 10.7526C91.1554 10.3731 90.9004 9.99359 90.6454 9.74059C90.3904 9.48758 90.008 9.23458 89.6255 9.10808C89.243 8.98157 88.8605 8.85507 88.3506 8.85507C87.8406 8.85507 87.4582 8.98157 87.0757 9.10808C86.6932 9.23458 86.3107 9.48758 86.0558 9.74059C85.8008 9.99359 85.5458 10.3731 85.4183 10.7526C85.2908 11.1321 85.1633 11.5116 85.1633 12.0176C85.1633 12.5236 85.2908 12.9031 85.4183 13.2827C85.5458 13.6622 85.8008 14.0417 86.0558 14.2947C86.3107 14.5477 86.6932 14.8007 87.0757 14.9272C87.4582 15.0537 87.8406 15.1802 88.3506 15.1802C88.8605 15.1802 89.243 15.0537 89.6255 14.9272C90.008 14.8007 90.3904 14.5477 90.6454 14.2947C90.9004 14.0417 91.1554 13.6622 91.2829 13.2827C91.4103 12.9031 91.5378 12.5236 91.5378 12.0176C91.5378 11.5116 91.5378 11.1321 91.2829 10.7526Z" fill="#FCCA29"/>
<path d="M100.717 13.6622C100.845 14.0417 101.1 14.2947 101.355 14.5477C101.61 14.8008 101.992 14.9273 102.247 15.0538C102.63 15.1803 102.885 15.1803 103.267 15.1803C103.904 15.1803 104.414 15.0538 104.797 14.8008C105.179 14.5477 105.562 14.2947 105.944 13.9152L106.709 14.5477C106.327 15.0538 105.817 15.4333 105.307 15.6863C104.797 15.9393 104.032 16.0658 103.267 16.0658C102.63 16.0658 102.12 15.9393 101.61 15.8128C101.1 15.5598 100.59 15.3068 100.207 14.9273C99.8247 14.5477 99.5698 14.0417 99.3148 13.5357C99.0598 13.0297 98.9323 12.3972 98.9323 11.7647C98.9323 11.1322 99.0598 10.6262 99.1873 10.1202C99.4423 9.61416 99.6973 9.10815 100.08 8.72865C100.462 8.34914 100.845 8.09613 101.355 7.84313C101.865 7.59012 102.375 7.46362 103.012 7.46362C103.649 7.46362 104.159 7.59012 104.669 7.84313C105.179 8.09613 105.562 8.34914 105.944 8.72865C106.327 9.10815 106.582 9.61416 106.709 10.1202C106.837 10.6262 106.964 11.2587 106.964 11.7647V11.8912C106.964 11.8912 106.964 12.0177 106.964 12.1442H100.207C100.462 12.9032 100.462 13.2827 100.717 13.6622ZM105.817 11.5117C105.817 11.1322 105.689 10.7527 105.562 10.4997C105.434 10.1202 105.307 9.86717 105.052 9.61416C104.797 9.36116 104.542 9.10815 104.287 8.98165C103.904 8.85515 103.649 8.72865 103.139 8.72865C102.757 8.72865 102.375 8.85515 102.12 8.98165C101.737 9.10815 101.482 9.23465 101.227 9.48766C100.972 9.74066 100.845 9.99367 100.59 10.3732C100.462 10.7527 100.335 11.1322 100.335 11.5117H105.817Z" fill="#FCCA29"/>
<path d="M116.398 8.72867C116.526 8.47566 116.781 8.34916 117.036 8.22266C117.291 8.09616 117.546 7.96966 117.801 7.84315C118.056 7.71665 118.438 7.71665 118.821 7.71665C119.841 7.71665 120.606 7.96966 121.115 8.60217C121.625 9.23468 122.008 9.99369 122.008 11.0057V16.0658H120.733V11.2587C120.733 10.4997 120.478 9.86719 120.096 9.36118C119.713 8.98167 119.203 8.72867 118.438 8.72867C118.183 8.72867 117.801 8.72867 117.546 8.85517C117.291 8.98167 117.036 9.10818 116.781 9.36118C116.526 9.61418 116.398 9.86719 116.271 10.1202C116.143 10.4997 116.143 10.7527 116.143 11.2587V15.9393H114.868V11.2587C114.868 10.4997 114.613 9.86719 114.231 9.48768C113.849 9.10818 113.339 8.85517 112.574 8.85517C112.191 8.85517 111.936 8.98167 111.681 9.10818C111.426 9.23468 111.171 9.36118 110.916 9.61419C110.661 9.86719 110.534 10.1202 110.406 10.3732C110.406 10.6262 110.406 11.0057 110.406 11.3852V16.0658H109.131V7.84315H110.406V9.23468C110.534 8.98167 110.661 8.85517 110.916 8.60217C111.044 8.34916 111.299 8.22266 111.554 8.09616C111.809 7.96966 112.064 7.84315 112.319 7.71665C112.574 7.59015 112.956 7.59015 113.211 7.59015C113.849 7.59015 114.486 7.71665 114.868 8.09616C115.378 8.34916 115.633 8.85517 115.888 9.23468C116.016 9.10818 116.143 8.85517 116.398 8.72867Z" fill="#FCCA29"/>
<path d="M35.0598 20.7463H47.9363V24.6679H39.522V27.451H47.1714V31.1195H39.522V36.8121H35.0598V20.7463Z" fill="#255DC1"/>
<path d="M50.1037 20.7463H54.5659V36.8121H50.1037V20.7463Z" fill="#255DC1"/>
<path d="M57.6255 20.7463H61.8327L68.4622 29.222V20.7463H72.9244V36.8121H68.9722L62.0877 27.957V36.8121H57.6255V20.7463Z" fill="#255DC1"/>
<path d="M81.3387 20.6198H85.6734L92.5579 36.8121H87.7132L86.5658 33.9025H80.3188L79.1714 36.8121H74.4543L81.3387 20.6198ZM85.2909 30.487L83.5061 25.9329L81.7212 30.487H85.2909Z" fill="#255DC1"/>
<path d="M94.0877 20.7463H98.2949L104.924 29.222V20.7463H109.387V36.8121H105.434L98.5499 27.957V36.8121H94.0877V20.7463Z" fill="#255DC1"/>
<path d="M116.143 39.3422L117.928 36.9387C114.359 36.0532 111.681 32.8906 111.681 28.8426C111.681 24.162 115.251 20.4934 120.223 20.4934C123.538 20.4934 125.705 21.8849 127.108 23.7825L123.793 26.3125C122.9 25.174 121.753 24.415 120.223 24.415C117.928 24.415 116.398 26.3125 116.398 28.7161C116.398 31.1196 118.056 33.0171 120.223 33.0171C121.881 33.0171 122.9 32.2581 123.92 31.1196L127.235 33.5231C125.833 35.4207 124.048 36.8122 120.988 37.0652L119.713 40.7338L116.143 39.3422Z" fill="#255DC1"/>
<path d="M134.757 20.6198H139.092L145.976 36.8121H141.132L139.984 33.9025H133.737L132.59 36.8121H127.873L134.757 20.6198ZM138.709 30.487L136.924 25.9329L135.14 30.487H138.709Z" fill="#255DC1"/>
<path d="M146.104 34.4087L148.653 31.4991C150.311 32.7641 151.968 33.3966 153.88 33.3966C155.028 33.3966 155.665 33.0171 155.665 32.2581C155.665 31.6256 155.155 31.2461 152.988 30.7401C149.546 29.9811 146.869 28.9691 146.869 25.68C146.869 22.6439 149.291 20.4934 153.116 20.4934C155.92 20.4934 157.96 21.2524 159.745 22.6439L157.45 25.8065C155.92 24.7945 154.39 24.162 152.861 24.162C151.713 24.162 151.203 24.668 151.203 25.174C151.203 25.933 151.713 26.186 154.008 26.692C157.705 27.451 160 28.7161 160 31.7521C160 35.0412 157.45 36.9387 153.498 36.9387C150.821 37.0652 148.016 36.1797 146.104 34.4087Z" fill="#255DC1"/>
</svg>
