<svg width="80" height="27" viewBox="0 0 80 27" fill="none" xmlns="http://www.w3.org/2000/svg">
<g clip-path="url(#clip0_127_208)">
<path d="M36.1428 7.48428C35.4779 6.08631 34.5658 4.8162 33.4747 3.74214C31.1135 1.42355 27.8828 0 24.3111 0H1.86681C0.835376 0 0 0.835375 0 1.86681C0 2.89824 0.835376 3.73362 1.86681 3.73362H13.0847C13.6558 3.73362 14.1673 3.98934 14.5168 4.39851C14.7896 4.72243 14.96 5.14012 14.96 5.60895C14.96 6.64038 14.1247 7.47576 13.0932 7.47576H9.35109C8.31966 7.47576 7.48428 8.31113 7.48428 9.34257C7.48428 10.374 8.31966 11.2094 9.35109 11.2094H13.0932C14.1247 11.2094 14.96 12.0448 14.96 13.0762C14.96 14.1076 14.1247 14.943 13.0932 14.943H1.86681C0.835376 14.96 0 15.8039 0 16.8354C0 17.8668 0.835376 18.7022 1.86681 18.7022H13.0847C14.1161 18.7022 14.9515 19.5376 14.9515 20.569C14.9515 21.0293 14.781 21.447 14.5083 21.7794C14.1673 22.1886 13.6558 22.4443 13.0762 22.4443H9.33404C8.30261 22.4443 7.46724 23.2797 7.46724 24.3111C7.46724 25.3426 8.30261 26.1779 9.33404 26.1779H24.2941C27.8572 26.1779 31.0964 24.7544 33.4576 22.4358C34.5573 21.3617 35.4608 20.1002 36.1257 18.6937C36.6798 17.5344 37.0634 16.2728 37.2509 14.9515C37.3362 14.3378 37.3873 13.7155 37.3873 13.0847C37.3873 12.4539 37.3447 11.8231 37.2509 11.2179C37.089 9.90517 36.6969 8.64358 36.1428 7.48428ZM20.3474 11.772C19.6143 11.0389 19.6143 9.85402 20.3474 9.12946L22.9899 6.48695C23.723 5.75386 24.9078 5.75386 25.6324 6.48695C26.3655 7.22003 26.3655 8.4049 25.6324 9.12946L22.9899 11.772C22.2653 12.4965 21.0804 12.4965 20.3474 11.772ZM28.2834 17.057L25.6409 19.6995C24.9078 20.4326 23.723 20.4326 22.9984 19.6995C22.2653 18.9664 22.2653 17.7816 22.9984 17.057L25.6409 14.4145C26.374 13.6814 27.5589 13.6814 28.2834 14.4145C29.008 15.1476 29.008 16.3324 28.2834 17.057Z" fill="white"/>
<path d="M2.16592 11.1945C3.18363 11.0293 3.87475 10.0704 3.70958 9.05271C3.54441 8.035 2.5855 7.34388 1.56779 7.50904C0.550084 7.67421 -0.141038 8.63312 0.0241297 9.65083C0.189297 10.6685 1.14821 11.3597 2.16592 11.1945Z" fill="white"/>
<path d="M47.6335 10.7064C48.4518 10.0415 48.861 8.89071 48.861 7.26258C48.861 5.60888 48.4348 4.46663 47.5823 3.83584C46.7299 3.20505 45.5962 2.88965 44.1726 2.88965H41.3511V11.7037H44.3261C45.7155 11.7122 46.8151 11.3798 47.6335 10.7064ZM43.9595 4.73088H44.488C44.8801 4.73088 45.1955 4.8076 45.4342 4.95251C45.6814 5.09743 45.8604 5.36168 45.9883 5.72822C46.1076 6.09476 46.1758 6.60622 46.1758 7.26258C46.1758 7.92747 46.1161 8.44745 45.9968 8.82252C45.8775 9.19759 45.6985 9.47036 45.4513 9.6238C45.2041 9.78576 44.8801 9.86248 44.4795 9.86248H43.9595V4.73088Z" fill="white"/>
<path d="M52.2707 2.89819H49.6622V11.7123H52.2707V2.89819Z" fill="white"/>
<path d="M59.0815 9.88807H55.9702V8.11503H58.5274V6.35051H55.9702V4.70533H58.8769L59.1412 2.89819H53.3618V11.7123H59.0815V9.88807Z" fill="white"/>
<path d="M63.7017 11.9596C64.2557 11.9596 64.8354 11.8744 65.4406 11.6953C66.0373 11.5163 66.5743 11.2691 67.0346 10.9452V6.52965H63.4033L63.642 8.28565H64.5285V9.89673C64.2387 10.0416 63.9403 10.1098 63.6335 10.1098C63.2755 10.1098 62.9942 10.0246 62.7811 9.85411C62.5679 9.68362 62.406 9.3938 62.3037 8.98464C62.2014 8.57547 62.1503 8.01287 62.1503 7.29684C62.1503 6.34212 62.3122 5.63461 62.6447 5.16577C62.9771 4.69694 63.4459 4.46679 64.0597 4.46679C64.3836 4.46679 64.6649 4.51793 64.9206 4.62022C65.1764 4.72251 65.4577 4.88447 65.7731 5.11463L67.0432 3.8019C66.6425 3.4524 66.1822 3.17963 65.6537 2.96652C65.1252 2.75341 64.5456 2.65112 63.9148 2.65112C63.0623 2.65112 62.2952 2.83013 61.6218 3.19667C60.9483 3.56322 60.4198 4.09172 60.0362 4.79071C59.6527 5.4897 59.4651 6.32507 59.4651 7.29684C59.4651 8.8312 59.8146 9.99902 60.5051 10.7833C61.187 11.5675 62.2611 11.9596 63.7017 11.9596Z" fill="white"/>
<path d="M71.8423 11.9596C72.7118 11.9596 73.4534 11.772 74.0671 11.3885C74.6809 11.0049 75.1497 10.4678 75.4736 9.76884C75.7975 9.06986 75.951 8.243 75.951 7.28829C75.951 5.82212 75.593 4.67987 74.8769 3.86154C74.1609 3.04322 73.1465 2.64258 71.8338 2.64258C70.9643 2.64258 70.2227 2.83011 69.609 3.20518C68.9952 3.58024 68.5264 4.11727 68.2025 4.81626C67.8785 5.51525 67.7251 6.3421 67.7251 7.28829C67.7251 8.75446 68.0831 9.90523 68.7991 10.7236C69.5152 11.5504 70.5296 11.9596 71.8423 11.9596ZM70.7682 5.13166C70.9899 4.70544 71.3479 4.49234 71.8423 4.49234C72.3367 4.49234 72.6947 4.70544 72.9164 5.13166C73.138 5.55787 73.2488 6.27391 73.2488 7.28829C73.2488 8.3112 73.138 9.03576 72.9249 9.46197C72.7118 9.89671 72.3452 10.1098 71.8423 10.1098C71.3479 10.1098 70.9814 9.89671 70.7682 9.46197C70.5466 9.02724 70.4358 8.30267 70.4358 7.28829C70.4358 6.28243 70.5466 5.55787 70.7682 5.13166Z" fill="white"/>
<path d="M45.4427 17.7049C44.9824 17.5515 44.6415 17.4321 44.4369 17.3469C44.2323 17.2617 44.0789 17.1679 43.9936 17.0741C43.9084 16.9804 43.8572 16.8525 43.8572 16.6991C43.8572 16.4945 43.934 16.341 44.0959 16.2302C44.2579 16.1194 44.4966 16.0683 44.8034 16.0683C45.4683 16.0683 46.0991 16.3069 46.6873 16.7758L47.8381 15.4204C47.0112 14.6191 45.9286 14.2185 44.5818 14.2185C43.934 14.2185 43.3458 14.3293 42.8258 14.551C42.3058 14.7726 41.8967 15.0795 41.6068 15.4886C41.3085 15.8978 41.1636 16.3666 41.1636 16.9207C41.1636 17.5941 41.3682 18.1567 41.7688 18.6085C42.178 19.0603 42.8855 19.4439 43.9084 19.7678C44.3005 19.8871 44.5903 19.9979 44.7949 20.1002C44.9995 20.2025 45.1359 20.3133 45.2211 20.4327C45.2978 20.552 45.3405 20.6969 45.3405 20.8759C45.3405 21.1146 45.2467 21.3021 45.0592 21.4556C44.8716 21.6005 44.5989 21.6772 44.2323 21.6772C43.4566 21.6772 42.732 21.3874 42.0671 20.8163L40.7885 22.2228C41.1977 22.6234 41.6921 22.9388 42.2803 23.186C42.8684 23.4332 43.5589 23.5525 44.3346 23.5525C45.0933 23.5525 45.7496 23.4332 46.3122 23.186C46.8663 22.9388 47.301 22.5978 47.5994 22.1631C47.8977 21.7284 48.0512 21.2254 48.0512 20.6628C48.0512 19.8871 47.8466 19.2734 47.4374 18.8301C47.0453 18.3698 46.3719 17.9947 45.4427 17.7049Z" fill="white"/>
<path d="M52.6202 14.2185C51.7507 14.2185 51.0091 14.406 50.3953 14.7811C49.7816 15.1562 49.3128 15.6932 48.9888 16.3922C48.6649 17.0912 48.5115 17.918 48.5115 18.8642C48.5115 20.3304 48.8695 21.4812 49.5855 22.2995C50.3016 23.1263 51.316 23.5355 52.6287 23.5355C53.4982 23.5355 54.2398 23.348 54.8535 22.9644C55.4673 22.5808 55.9361 22.0438 56.26 21.3448C56.5839 20.6458 56.7374 19.8189 56.7374 18.8642C56.7374 17.398 56.3794 16.2558 55.6633 15.4375C54.9558 14.6277 53.9414 14.2185 52.6202 14.2185ZM53.7027 21.0464C53.4896 21.4812 53.1231 21.6943 52.6202 21.6943C52.1258 21.6943 51.7592 21.4812 51.5461 21.0464C51.3245 20.6117 51.2137 19.8871 51.2137 18.8727C51.2137 17.8584 51.3245 17.1423 51.5461 16.7161C51.7677 16.2899 52.1258 16.0768 52.6202 16.0768C53.1146 16.0768 53.4726 16.2899 53.6942 16.7161C53.9158 17.1423 54.0267 17.8584 54.0267 18.8727C54.0267 19.8871 53.9244 20.6117 53.7027 21.0464Z" fill="white"/>
<path d="M62.1161 20.2194C62.1161 20.7138 62.0309 21.0804 61.8689 21.3105C61.707 21.5407 61.4342 21.66 61.0677 21.66C60.6926 21.66 60.4283 21.5407 60.2664 21.3105C60.1044 21.0804 60.0192 20.7138 60.0192 20.2194V14.4741H57.4108V20.2962C57.4108 21.2935 57.7176 22.0777 58.3314 22.6659C58.9451 23.2455 59.8572 23.5354 61.0677 23.5354C61.8689 23.5354 62.5424 23.3905 63.0964 23.1092C63.642 22.8279 64.0511 22.4443 64.3239 21.9499C64.5967 21.464 64.7331 20.9099 64.7331 20.2876V14.4656H62.1247V20.2194H62.1161Z" fill="white"/>
<path d="M68.2621 21.2509L71.7656 16.4091V14.4741H65.5003V16.4517H68.7651L65.1423 21.3788V23.2882H71.6292L71.8849 21.2509H68.2621Z" fill="white"/>
<path d="M77.4428 14.4741H74.3314L71.7571 23.2882H74.4763L74.8088 21.5748H76.8972L77.2382 23.2882H80L77.4428 14.4741ZM75.1753 19.7506L75.8487 16.2983L76.5307 19.7506H75.1753Z" fill="white"/>
</g>
<defs>
<clipPath id="clip0_127_208">
<rect width="80" height="26.1865" fill="white"/>
</clipPath>
</defs>
</svg>
